<svg width="0" height="0" class="hidden">
	<symbol viewBox="0 0 530 530" xmlns="http://www.w3.org/2000/svg" shape-rendering="geometricPrecision" fill-rule="evenodd" clip-rule="evenodd" id="search">
		<path fill-rule="nonzero" d="M518 460L409 351c26-38 39-80 39-127a220 220 0 00-65-159 224 224 0 00-246-47A224 224 0 000 224a220 220 0 0066 159 224 224 0 00285 26l109 109c8 8 18 12 29 12s21-4 29-12 12-18 12-29-4-21-12-29zM325 325c-28 28-61 42-101 42-39 0-73-14-101-42-27-28-41-62-41-101s14-73 41-101c28-27 62-41 101-41 40 0 73 14 101 41 28 28 42 62 42 101s-14 73-42 101z"/>
	</symbol>

	<symbol viewBox="0 0 535 312" xmlns="http://www.w3.org/2000/svg" shape-rendering="geometricPrecision" fill-rule="evenodd" clip-rule="evenodd" id="vk">
		<path fill-rule="nonzero" d="M455 198l33 30c8 8 20 19 32 35 19 27 21 44-8 47-42-2-100 4-111-10-43-45-75-91-88-32l-3 26c0 9-1 15-21 17h-30a169 169 0 01-112-43 567 567 0 01-96-132C33 102 17 69 3 39v-3c-5-14-4-22 10-21 71 0 94-12 103 20 54 125 102 175 92 26-5-39-17-35-21-36-32 0 10-25 15-23 44 0 109-12 111 27 0 50-24 226 75 38l11-27c7-16 8-27 25-25h84c2 1 41-8 17 37-34 75-106 111-70 146z"/>
	</symbol>

	<symbol viewBox="0 0 370 634" xmlns="http://www.w3.org/2000/svg" shape-rendering="geometricPrecision" fill-rule="evenodd" clip-rule="evenodd" id="ok">
		<path fill-rule="nonzero" d="M365 378c-28 37-86 62-149 68l116 120s27 26-1 55c-30 29-53 1-53 1l-92-94-92 94s-23 28-53-1c-27-29 0-55 0-55l115-120c-59-5-116-27-152-70-17-32 26-81 71-40 0 0 104 76 222 0 64-50 83 27 68 42zm-150 68h-1v1l1-1zm-57 1v-1 1zm28-127c-86 0-156-72-156-160S100 0 186 0s156 72 156 160-70 160-156 160zm0-239c-44 0-77 34-77 79a77 77 0 10154 0c0-45-33-79-77-79z"/>
	</symbol>

	<symbol viewBox="0 0 456 456" xmlns="http://www.w3.org/2000/svg" shape-rendering="geometricPrecision" fill-rule="evenodd" clip-rule="evenodd" id="insta">
		<path fill-rule="nonzero" d="M59 0h338c33 0 59 24 59 58v339c0 35-26 59-59 59H59c-33 0-59-24-59-59V58C0 24 26 0 59 0zm273 51c-11 0-20 9-20 20v49c0 12 9 21 20 21h52c11 0 20-9 20-21V71c0-11-9-20-20-20h-52zm72 142h-40c4 12 6 25 6 39 0 76-63 137-142 137-78 0-141-61-141-137 0-14 2-27 6-39H51v192c0 10 8 19 18 19h317c10 0 18-9 18-19V193zm-176-55c-50 0-91 40-91 89s41 89 91 89c51 0 92-40 92-89s-41-89-92-89z"/>
	</symbol>

	<symbol viewBox="0 0 517 419" xmlns="http://www.w3.org/2000/svg" shape-rendering="geometricPrecision" fill-rule="evenodd" clip-rule="evenodd" id="twitter">
		<path fill-rule="nonzero" d="M503 8c-21 12-43 21-68 25a106 106 0 00-180 97C166 125 88 83 36 19a106 106 0 0033 141c-18 0-34-5-48-13v2c0 51 36 94 85 103a108 108 0 01-48 2c13 42 53 73 99 74A213 213 0 010 371c47 30 103 48 163 48 195 0 301-161 301-301v-14c21-15 39-33 53-54-19 8-39 14-61 16 22-13 39-34 47-58z"/>
	</symbol>

	<symbol viewBox="0 0 683 478" xmlns="http://www.w3.org/2000/svg" shape-rendering="geometricPrecision" fill-rule="evenodd" clip-rule="evenodd" id="youtube">
		<path fill-rule="nonzero" d="M671 77c-8-37-38-64-74-68-84-9-170-9-255-9-86 0-171 0-256 9-36 4-66 31-74 68C0 129 0 186 0 239s0 110 12 162c8 37 38 63 74 67 84 10 170 10 255 10 86 0 172 0 256-10 36-4 66-30 74-67 12-52 12-109 12-162s0-110-12-162zM253 345V119l217 113-217 113z"/>
	</symbol>

	<symbol viewBox="0 0 493 290" xmlns="http://www.w3.org/2000/svg" shape-rendering="geometricPrecision" fill-rule="evenodd" clip-rule="evenodd" id="arrow-down">
		<path fill-rule="nonzero" d="M246 192L62 8a27 27 0 00-38 0L8 24a27 27 0 000 38l219 219a27 27 0 0038 0L484 62a27 27 0 000-38L468 8a28 28 0 00-38 0L246 192z"/>
	</symbol>

	<symbol viewBox="0 0 290 492" xmlns="http://www.w3.org/2000/svg" shape-rendering="geometricPrecision" fill-rule="evenodd" clip-rule="evenodd" id="arrow-left">
		<path fill-rule="nonzero" d="M97 246L281 62a27 27 0 000-38L265 8a27 27 0 00-38 0L8 227a27 27 0 000 38l219 219a27 27 0 0038 0l16-16c10-10 10-28 0-38L97 246z"/>
	</symbol>

	<symbol viewBox="0 0 290 492" xmlns="http://www.w3.org/2000/svg" shape-rendering="geometricPrecision" fill-rule="evenodd" clip-rule="evenodd" id="arrow-right">
		<path fill-rule="nonzero" d="M192 246L8 62a27 27 0 010-38L24 8a27 27 0 0138 0l219 219a27 27 0 010 38L62 484a27 27 0 01-38 0L8 468a27 27 0 010-38l184-184z"/>
	</symbol>
</svg>